Coordinates
version=1
nRows=17
nColumns=40
inDegrees=yes

Units are S.I. units (second, meters, Newtons, ...)
If the header above contains a line with 'inDegrees', this indicates whether rotational values are in degrees (yes) or radians (no).

endheader
time	pelvis_tilt	pelvis_list	pelvis_rotation	pelvis_tx	pelvis_ty	pelvis_tz	hip_flexion_r	hip_adduction_r	hip_rotation_r	knee_angle_r	knee_angle_r_beta	ankle_angle_r	subtalar_angle_r	mtp_angle_r	hip_flexion_l	hip_adduction_l	hip_rotation_l	knee_angle_l	knee_angle_l_beta	ankle_angle_l	subtalar_angle_l	mtp_angle_l	lumbar_extension	lumbar_bending	lumbar_rotation	arm_flex_r	arm_add_r	arm_rot_r	elbow_flex_r	pro_sup_r	wrist_flex_r	wrist_dev_r	arm_flex_l	arm_add_l	arm_rot_l	elbow_flex_l	pro_sup_l	wrist_flex_l	wrist_dev_l
     11.27500000	     10.62269535	     -4.77073496	     -4.23658904	     -0.25673101	      0.86438481	     -1.03066356	     58.20641687	     -0.17930429	     -4.53813908	     28.77290894	      0.50218200	     -2.20253325	      0.00000000	      0.00000000	     28.28010604	     -3.31556957	     -7.52601582	     83.06913462	      1.44982991	     39.73199176	      0.00000000	      0.00000000	    -20.08815826	      0.54441991	      2.61102691	     89.89041959	     -4.90458446	     32.89885761	     30.93785802	     72.48895676	      0.00000000	      0.00000000	     89.92837629	    -14.64165182	     35.72812215	     34.81559609	     85.28710660	      0.00000000	      0.00000000
     11.28000000	     10.63495730	     -4.75541757	     -4.30176691	     -0.25671544	      0.86437845	     -1.03055587	     58.25327456	     -0.11275290	     -4.43984872	     28.84196670	      0.50338728	     -2.26316992	      0.00000000	      0.00000000	     28.25166956	     -3.31203438	     -7.58216016	     83.06444632	      1.44974808	     39.73561858	      0.00000000	      0.00000000	    -20.10295782	      0.51421562	      2.71022882	     89.89119191	     -5.01040847	     33.05454935	     31.02384473	     73.31800312	      0.00000000	      0.00000000	     89.92853243	    -14.54382714	     35.60886039	     34.73748511	     85.12446459	      0.00000000	      0.00000000
     11.28500000	     10.56191491	     -4.83053294	     -4.31966872	     -0.25667153	      0.86413213	     -1.03048292	     58.37099940	     -0.03348441	     -4.47968251	     28.90528723	      0.50449243	     -2.28361076	      0.00000000	      0.00000000	     28.36164835	     -3.37812426	     -7.51961759	     83.12638244	      1.45082907	     39.74882549	      0.00000000	      0.00000000	    -20.03609240	      0.62275662	      2.67577076	     89.89070893	     -4.84564444	     32.85097063	     31.00632301	     72.23697054	      0.00000000	      0.00000000	     89.92877002	    -14.66780797	     35.73397826	     34.80728209	     85.31040069	      0.00000000	      0.00000000
     11.29000000	     10.56416700	     -4.88134907	     -4.41330391	     -0.25662139	      0.86413972	     -1.03022437	     58.40764190	      0.11026241	     -4.41129683	     28.94403897	      0.50516878	     -2.36692222	      0.00000000	      0.00000000	     28.34295944	     -3.47553056	     -7.57211560	     83.15306086	      1.45129470	     39.73281899	      0.00000000	      0.00000000	    -20.05191059	      0.64488956	      2.78715827	     89.89167394	     -4.87717476	     32.32616562	     30.96916460	     78.11845954	      0.00000000	      0.00000000	     89.92877164	    -14.66825860	     35.77371233	     34.86448694	     84.99796743	      0.00000000	      0.00000000
     11.29500000	     10.59326565	     -4.86950481	     -4.37734324	     -0.25658372	      0.86418241	     -1.03046722	     58.42455341	      0.05869850	     -4.48784016	     29.01264844	      0.50636624	     -2.28642640	      0.00000000	      0.00000000	     28.30901590	     -3.38160397	     -7.51477583	     83.14101693	      1.45108449	     39.89932228	      0.00000000	      0.00000000	    -20.08839043	      0.66927652	      2.77771208	     89.89222746	     -4.93696184	     32.85030913	     31.13140086	     72.74529045	      0.00000000	      0.00000000	     89.92850856	    -14.57487697	     35.47706797	     34.81330158	     85.16106342	      0.00000000	      0.00000000
     11.30000000	     10.60433490	     -4.83802125	     -4.47525583	     -0.25654303	      0.86424335	     -1.03025724	     58.46617724	      0.15061777	     -4.35669527	     29.06891098	      0.50734821	     -2.27977179	      0.00000000	      0.00000000	     28.26238662	     -3.36166297	     -7.58080688	     83.10593709	      1.45047223	     39.84623152	      0.00000000	      0.00000000	    -20.10629823	      0.61679325	      2.82568305	     89.89131731	     -4.83851903	     32.22504741	     31.00111841	     78.02438726	      0.00000000	      0.00000000	     89.92884646	    -14.63631650	     35.63856166	     34.87000116	     85.00475896	      0.00000000	      0.00000000
     11.30500000	     10.61783790	     -4.85084002	     -4.50328026	     -0.25649358	      0.86425936	     -1.03024638	     58.49555329	      0.19248985	     -4.35936274	     29.11778329	      0.50820119	     -2.34279742	      0.00000000	      0.00000000	     28.23388475	     -3.34643299	     -7.55832635	     83.09372985	      1.45025917	     39.85571025	      0.00000000	      0.00000000	    -20.12178264	      0.63559542	      2.84827718	     89.89153546	     -4.80395568	     32.14132780	     31.00135521	     78.38132136	      0.00000000	      0.00000000	     89.92900303	    -14.64362748	     35.64421059	     34.87476302	     84.91800755	      0.00000000	      0.00000000
     11.31000000	     10.55202498	     -4.89587219	     -4.48902963	     -0.25646038	      0.86409490	     -1.03030779	     58.61373898	      0.22243871	     -4.37280968	     29.16766157	      0.50907173	     -2.40750864	      0.00000000	      0.00000000	     28.32907751	     -3.36848114	     -7.50030101	     83.13670099	      1.45100916	     39.89446537	      0.00000000	      0.00000000	    -20.05603860	      0.71740784	      2.81762500	     89.89146092	     -4.76785682	     32.11298321	     31.00448965	     78.43097993	      0.00000000	      0.00000000	     89.92907377	    -14.66563406	     35.60167085	     34.87870708	     84.91940673	      0.00000000	      0.00000000
     11.31500000	     10.58275306	     -4.92628109	     -4.49541942	     -0.25644503	      0.86420520	     -1.03030191	     58.61715328	      0.25404005	     -4.44140639	     29.19933980	      0.50962462	     -2.42313232	      0.00000000	      0.00000000	     28.27967394	     -3.38950090	     -7.49416511	     83.11479619	      1.45062685	     39.88138099	      0.00000000	      0.00000000	    -20.10187594	      0.77028822	      2.78688355	     89.89148999	     -4.69659989	     32.36167823	     31.08109750	     73.83585388	      0.00000000	      0.00000000	     89.92903776	    -14.72503249	     35.62222969	     34.90126563	     85.18832344	      0.00000000	      0.00000000
     11.32000000	     10.51327348	     -4.91864783	     -4.51734764	     -0.25642475	      0.86404095	     -1.03031476	     58.75609260	      0.28248437	     -4.38824980	     29.26341010	      0.51074286	     -2.41173128	      0.00000000	      0.00000000	     28.37040175	     -3.35895440	     -7.46050674	     83.14010732	      1.45106861	     39.88708196	      0.00000000	      0.00000000	    -20.03271975	      0.77535065	      2.82379616	     89.89206385	     -4.73448741	     32.08575686	     31.04519885	     77.66160637	      0.00000000	      0.00000000	     89.92916665	    -14.66153295	     35.56611718	     34.88641393	     84.97437434	      0.00000000	      0.00000000
     11.32500000	     10.50799117	     -4.97142164	     -4.54906737	     -0.25640717	      0.86408220	     -1.03022455	     58.79912533	      0.35705604	     -4.47337015	     29.29094131	      0.51122337	     -2.43725968	      0.00000000	      0.00000000	     28.37761834	     -3.41730331	     -7.44828906	     83.16228108	      1.45145562	     39.84562392	      0.00000000	      0.00000000	    -20.03893666	      0.85014112	      2.85153776	     89.89203650	     -4.70513050	     32.45475392	     31.16957797	     72.79749634	      0.00000000	      0.00000000	     89.92936008	    -14.71249140	     35.59605285	     34.91850515	     85.22367193	      0.00000000	      0.00000000
     11.33000000	     10.50572039	     -4.94791061	     -4.53998356	     -0.25637769	      0.86408854	     -1.03033263	     58.85700755	      0.34094876	     -4.41010358	     29.33901264	      0.51206237	     -2.41645510	      0.00000000	      0.00000000	     28.38636213	     -3.33468695	     -7.38298430	     83.15440971	      1.45131824	     39.83235222	      0.00000000	      0.00000000	    -20.03328915	      0.84803815	      2.79295360	     89.89212452	     -4.67440535	     32.03528825	     31.09988059	     77.85070116	      0.00000000	      0.00000000	     89.92937776	    -14.72939480	     35.56567190	     34.90102028	     84.93177716	      0.00000000	      0.00000000
     11.33500000	     10.59249122	     -4.98745329	     -4.50997917	     -0.25629600	      0.86445808	     -1.03047469	     58.78422448	      0.35158969	     -4.46968954	     29.36358677	      0.51249127	     -2.34921975	      0.00000000	      0.00000000	     28.27010733	     -3.31150926	     -7.31911507	     83.11021714	      1.45054693	     40.06837706	      0.00000000	      0.00000000	    -20.14308943	      0.91607610	      2.78316146	     89.89215984	     -4.68710820	     31.98988027	     31.16032019	     78.43692984	      0.00000000	      0.00000000	     89.92942596	    -14.70839641	     35.50184632	     34.90855889	     84.88397508	      0.00000000	      0.00000000
     11.34000000	     10.91425667	     -5.24271904	     -4.93411652	     -0.25602537	      0.86583060	     -1.02900045	     58.32806906	      0.99717642	     -4.35580287	     29.16670352	      0.50905501	     -2.40982144	      0.00000000	      0.00000000	     27.66172614	     -3.93209120	     -7.72574452	     82.95928789	      1.44791272	     39.93124033	      0.00000000	      0.00000000	    -20.51429819	      0.97309328	      3.26737634	     89.89129212	     -4.67812732	     32.12449594	     31.19770620	     77.33613176	      0.00000000	      0.00000000	     89.92929068	    -14.73777429	     35.53026586	     34.91763557	     84.74287832	      0.00000000	      0.00000000
     11.34500000	     10.49786442	     -4.96484403	     -4.54532889	     -0.25627193	      0.86436266	     -1.03054024	     59.01462577	      0.39012454	     -4.38949611	     29.44008129	      0.51382635	     -2.38747714	      0.00000000	      0.00000000	     28.39433419	     -3.23778953	     -7.27718396	     83.12018184	      1.45072085	     40.06790973	      0.00000000	      0.00000000	    -20.05311444	      0.94506252	      2.75699329	     89.89200810	     -4.63032678	     32.05729305	     31.21668396	     76.37695245	      0.00000000	      0.00000000	     89.92943684	    -14.73549015	     35.38291581	     34.89531159	     85.20151880	      0.00000000	      0.00000000
     11.35000000	     10.90307031	     -5.34435796	     -4.90193519	     -0.25606118	      0.86601581	     -1.02908745	     58.38609172	      1.07279864	     -4.37642134	     29.11079345	      0.50807919	     -2.65867103	      0.00000000	      0.00000000	     27.71256904	     -3.92533354	     -7.49667871	     82.97376742	      1.44816543	     39.65623111	      0.00000000	      0.00000000	    -20.53232887	      1.14714359	      3.20629094	     89.89111060	     -4.37550440	     31.56350319	     30.99120907	     74.73487867	      0.00000000	      0.00000000	     89.92870828	    -14.66316576	     35.30754192	     34.74813478	     82.39471035	      0.00000000	      0.00000000
     11.35500000	     10.54801863	     -4.93124735	     -4.57991389	     -0.25622292	      0.86465392	     -1.03058919	     59.07784795	      0.43189672	     -4.29790877	     29.54600437	      0.51567506	     -2.39216276	      0.00000000	      0.00000000	     28.30668352	     -3.13525533	     -7.24108666	     83.05244968	      1.44953870	     39.86784309	      0.00000000	      0.00000000	    -20.11495666	      0.94398541	      2.75443836	     89.89191100	     -4.59371018	     31.83762259	     31.21773025	     78.48667547	      0.00000000	      0.00000000	     89.92962032	    -14.73844128	     35.36038272	     34.90620442	     84.91447623	      0.00000000	      0.00000000
